<svg xmlns="http://www.w3.org/2000/svg" viewBox="0 0 14.96 17.08"><defs><style>.cls-1{fill-rule:evenodd;}</style></defs><title>Zasób 3</title><g id="Warstwa_2" data-name="Warstwa 2"><g id="Warstwa_1-2" data-name="Warstwa 1"><path class="cls-1" d="M13.89,5.34v8.54a3.21,3.21,0,0,1-3.21,3.2H4.27a3.2,3.2,0,0,1-3.2-3.2V5.34a1.07,1.07,0,0,1,0-2.14h3.2a3.21,3.21,0,0,1,6.41,0h3.21a1.07,1.07,0,1,1,0,2.14ZM7.48,2.14A1.06,1.06,0,0,0,6.41,3.2H8.55A1.06,1.06,0,0,0,7.48,2.14ZM3.2,5.34v8.54A1.07,1.07,0,0,0,4.27,15h6.41a1.07,1.07,0,0,0,1.07-1.07V5.34Zm5.88,7.47a.53.53,0,0,1-.53-.53V8A.54.54,0,1,1,9.62,8v4.27A.54.54,0,0,1,9.08,12.81Zm-3.2,0a.54.54,0,0,1-.54-.53V8A.54.54,0,1,1,6.41,8v4.27A.53.53,0,0,1,5.88,12.81Z"/></g></g></svg>