<svg xmlns="http://www.w3.org/2000/svg" viewBox="0 0 17.09 17.08"><defs><style>.cls-1{fill-rule:evenodd;}</style></defs><title>Zasób 6</title><g id="Warstwa_2" data-name="Warstwa 2"><g id="Warstwa_1-2" data-name="Warstwa 1"><path class="cls-1" d="M13.89,17.08H3.21A3.2,3.2,0,0,1,0,13.88V3.2A3.18,3.18,0,0,1,2.14.2V1.6a1.6,1.6,0,1,0,3.2,0V0h6.41V1.6A1.61,1.61,0,0,0,15,1.6V.2a3.18,3.18,0,0,1,2.13,3V13.88A3.2,3.2,0,0,1,13.89,17.08ZM15,5.34H2.14v8.54A1.06,1.06,0,0,0,3.21,15H13.89A1.07,1.07,0,0,0,15,13.88Zm-4.28,5.34h2.14v2.13H10.68Zm0-3.21h2.14V9.61H10.68Zm-3.2,3.21H9.62v2.13H7.48Zm0-3.21H9.62V9.61H7.48ZM4.27,10.68H6.41v2.13H4.27Zm0-3.21H6.41V9.61H4.27Zm9.08-5.33a.54.54,0,0,1-.53-.54V0h1.07V1.6A.54.54,0,0,1,13.35,2.14Zm-9.61,0a.53.53,0,0,1-.53-.54V0H4.27V1.6A.54.54,0,0,1,3.74,2.14Z"/></g></g></svg>