<svg xmlns="http://www.w3.org/2000/svg" viewBox="0 0 17.09 17.08"><defs><style>.cls-1{fill-rule:evenodd;}</style></defs><title>Zasób 4</title><g id="Warstwa_2" data-name="Warstwa 2"><g id="Warstwa_1-2" data-name="Warstwa 1"><path class="cls-1" d="M15,11.55V5.34a3.21,3.21,0,0,0-3.21-3.2H3.4A3.19,3.19,0,0,1,6.41,0h7.48a3.2,3.2,0,0,1,3.2,3.2V8.54A3.2,3.2,0,0,1,15,11.55ZM13.89,6.41v4.27a3.21,3.21,0,0,1-3.21,3.2H7.48l-2.14,3.2-2.13-3.2A3.2,3.2,0,0,1,0,10.68V6.41A3.21,3.21,0,0,1,3.21,3.2h7.47A3.21,3.21,0,0,1,13.89,6.41Zm-11.75,0v4.27a1.06,1.06,0,0,0,1.07,1.06h.71l1.42,2.14,1.43-2.14h3.91a1.06,1.06,0,0,0,1.07-1.06V6.41a1.07,1.07,0,0,0-1.07-1.07H3.21A1.06,1.06,0,0,0,2.14,6.41Z"/></g></g></svg>