<svg xmlns="http://www.w3.org/2000/svg" xmlns:xlink="http://www.w3.org/1999/xlink" viewBox="0 0 27.19 26.6"><defs><style>.cls-1{fill:none;}.cls-2{clip-path:url(#clip-path);}</style><clipPath id="clip-path" transform="translate(0 0)"><rect class="cls-1" width="27.19" height="26.6"/></clipPath></defs><title>Zasób 4</title><g id="Warstwa_2" data-name="Warstwa 2"><g id="Warstwa_1-2" data-name="Warstwa 1"><g class="cls-2"><g class="cls-2"><path d="M13.63,3.15A11.72,11.72,0,0,0,4.77,22.56L2,25.92l.83.68,2.65-3.26a11.73,11.73,0,0,0,16.25,0l2.66,3.28.83-.67L22.5,22.54A11.72,11.72,0,0,0,13.63,3.15Zm0,22.39A10.67,10.67,0,1,1,24.29,14.88,10.68,10.68,0,0,1,13.63,25.54Z" transform="translate(0 0)"/><path d="M9.12.28,6,0A5.33,5.33,0,0,0,.24,5L0,8.15l1.7.13A12.43,12.43,0,0,1,9,1.89L9.12.28M8,1.27H8a12,12,0,0,0-6.83,5.9L1.3,5A4.27,4.27,0,0,1,5.88,1.1" transform="translate(0 0)"/><path d="M18.2,1.87a12.43,12.43,0,0,1,7.29,6.39l1.7-.13L27,4.93A5.32,5.32,0,0,0,21.23,0L18.07.25s.11,1.47.13,1.62m3.11-.79A4.27,4.27,0,0,1,25.89,5l.16,2.14a12,12,0,0,0-6.83-5.9h0" transform="translate(0 0)"/><polygon points="13.11 14.87 7.23 14.87 7.23 15.94 14.17 15.94 14.17 6.34 13.11 6.34 13.11 14.87"/><path d="M14.79,15a1.16,1.16,0,0,1-2.31,0,1.16,1.16,0,1,1,2.31,0" transform="translate(0 0)"/></g></g></g></g></svg>