<svg xmlns="http://www.w3.org/2000/svg" viewBox="0 0 17.09 17.08"><defs><style>.cls-1{fill-rule:evenodd;}</style></defs><title>Zasób 2</title><g id="Warstwa_2" data-name="Warstwa 2"><g id="Warstwa_1-2" data-name="Warstwa 1"><path class="cls-1" d="M8.55,17.08a8.54,8.54,0,1,1,8.54-8.54A8.54,8.54,0,0,1,8.55,17.08Zm0-14.94A6.41,6.41,0,1,0,15,8.54,6.4,6.4,0,0,0,8.55,2.14Zm-3,9.42C4.69,10.73,6.2,7.87,7,7s3.69-2.34,4.53-1.51-.68,3.7-1.51,4.53S6.36,12.4,5.53,11.56Zm5.28-5.28c-.41-.42-2.6,1.09-3,1.51L9.3,9.3C9.72,8.88,11.23,6.69,10.81,6.28Z"/></g></g></svg>