<svg id="Warstwa_1" data-name="Warstwa 1" xmlns="http://www.w3.org/2000/svg" viewBox="0 0 14.96 17.08"><defs><style>.cls-1{fill-rule:evenodd;}</style></defs><title>person</title><path class="cls-1" d="M137.57,128.3h-7.48a3.51,3.51,0,0,1-3.74-3.21h0a6.76,6.76,0,0,1,3.88-4.53,4,4,0,0,1-1.38-2.94v-2.13c0-2.36,2.23-4.28,5-4.28s5,1.92,5,4.28v2.13a3.93,3.93,0,0,1-1.39,2.94,6.71,6.71,0,0,1,3.88,4.53h0A3.5,3.5,0,0,1,137.57,128.3Zm-1.24-10.68v-2.13a2.52,2.52,0,0,0-5,0v2.13a2.52,2.52,0,0,0,5,0Zm2.49,7.47a5.16,5.16,0,0,0-5-3.2h0a5.13,5.13,0,0,0-5,3.2h0a1.17,1.17,0,0,0,1.24,1.07h7.48a1.17,1.17,0,0,0,1.25-1.07Z" transform="translate(-126.35 -111.21)"/></svg>