<svg xmlns="http://www.w3.org/2000/svg" xmlns:xlink="http://www.w3.org/1999/xlink" viewBox="0 0 125.51 19.25"><defs><style>.cls-1,.cls-4{fill:none;}.cls-2{clip-path:url(#clip-path);}.cls-3{fill:#1f3c8c;}.cls-4{stroke:#1f3c8c;stroke-linecap:round;stroke-linejoin:round;}</style><clipPath id="clip-path" transform="translate(0 0)"><rect class="cls-1" width="125.51" height="19.25"/></clipPath></defs><title>Zasób 3</title><g id="Warstwa_2" data-name="Warstwa 2"><g id="Warstwa_1-2" data-name="Warstwa 1"><g class="cls-2"><path class="cls-3" d="M28.45,5.8l2.16,6.5H26.29ZM25.77.45l-6.34,18.3h4.73l1-3.07h6.56l1,3.07H37.5L31.18.45Z" transform="translate(0 0)"/><polygon class="cls-3" points="51.56 0.45 51.56 11.96 44.13 0.45 39.68 0.45 39.68 18.75 44.13 18.75 44.13 7.23 51.56 18.75 56.01 18.75 56.01 0.45 51.56 0.45"/><path class="cls-3" d="M67.22,5.8l2.15,6.5H65.06ZM64.54.45l-6.35,18.3h4.73l1-3.07h6.55l1,3.07h4.75L70,.45Z" transform="translate(0 0)"/><g class="cls-2"><path class="cls-3" d="M84.87.5A10.29,10.29,0,0,1,92,3a8.42,8.42,0,0,1,2.81,6.57A8.44,8.44,0,0,1,92,16.2a10.25,10.25,0,0,1-7.17,2.55H78.45V.5Zm-2,14.87h2a5.2,5.2,0,0,0,4-1.56,5.88,5.88,0,0,0,1.46-4.18,5.91,5.91,0,0,0-1.46-4.19,5.2,5.2,0,0,0-4-1.56h-2Z" transform="translate(0 0)"/><polygon class="cls-3" points="106.86 18.75 102.42 18.75 102.42 12.88 96.1 0.5 101.14 0.5 104.66 8.74 108.14 0.5 113.18 0.5 106.86 12.88 106.86 18.75"/><polygon class="cls-3" points="115.52 0.5 119.97 0.5 119.97 15.37 125.51 15.37 125.51 18.75 115.52 18.75 115.52 0.5"/><polyline class="cls-4" points="8.01 9.05 5.23 0.5 0.5 0.5 6.97 18.75 14.28 0.5 19.01 0.5 12.54 18.75"/></g></g></g></g></svg>