<svg xmlns="http://www.w3.org/2000/svg" xmlns:xlink="http://www.w3.org/1999/xlink" viewBox="0 0 31.99 30.93"><defs><style>.cls-1{fill:none;}.cls-2{clip-path:url(#clip-path);}</style><clipPath id="clip-path" transform="translate(0 0)"><rect class="cls-1" width="31.99" height="30.93"/></clipPath></defs><title>Zasób 5</title><g id="Warstwa_2" data-name="Warstwa 2"><g id="Warstwa_1-2" data-name="Warstwa 1"><g class="cls-2"><g class="cls-2"><path d="M16.53,2.68,16.06,0h-.14l-.46,2.68A16,16,0,0,0,0,18.57,16.85,16.85,0,0,0,.09,20.3l1.07,0a3.31,3.31,0,0,1,6.61.12H8.84a3.31,3.31,0,0,1,6.62-.06v8.25a2.36,2.36,0,1,0,4.71,0H19.1a1.29,1.29,0,1,1-2.57,0V20.38h0a3.31,3.31,0,0,1,6.62,0h1.07a3.31,3.31,0,0,1,6.61-.15l1.07,0c.05-.57.09-1.13.09-1.69A16,16,0,0,0,16.52,2.68ZM27.53,16a4.35,4.35,0,0,0-3.84,2.29,4.37,4.37,0,0,0-7.69,0,4.37,4.37,0,0,0-7.69,0,4.38,4.38,0,0,0-7.21-.72,14.94,14.94,0,0,1,29.79,0A4.39,4.39,0,0,0,27.53,16Z" transform="translate(0 0)"/></g></g></g></g></svg>